# Blender 4.1.1
# www.blender.org
mtllib hole.mtl
o hole
v -1.000000 -1.000000 1.000000
v -1.000000 1.000000 1.000000
v -1.000000 -1.000000 -1.000000
v -1.000000 1.000000 -1.000000
v 1.000000 -1.000000 1.000000
v 1.000000 1.000000 1.000000
v 1.000000 -1.000000 -1.000000
v 1.000000 1.000000 -1.000000
v 0.000000 1.000000 -1.000000
v 0.000000 1.000000 1.000000
v -1.000000 1.000000 -0.000000
v 1.000000 1.000000 -0.000000
v 0.333333 1.000000 -0.333333
v 0.333333 1.000000 0.333333
v -0.343978 1.004167 -0.321822
v -0.333333 1.000000 0.333333
v 0.455364 1.000000 -0.000000
v -0.455364 1.000000 -0.000000
v 0.000000 1.000000 -0.455364
v 0.000000 1.000000 0.455364
vn -0.0000 -0.0000 1.0000
vn -0.0000 -0.0000 -1.0000
vn -1.0000 -0.0000 -0.0000
vn -0.0000 1.0000 -0.0000
vn -0.0000 -1.0000 -0.0000
vn 1.0000 -0.0000 -0.0000
vt 0.375000 0.750000
vt 0.625000 1.000000
vt 0.375000 1.000000
vt 0.375000 0.250000
vt 0.625000 0.500000
vt 0.375000 0.500000
vt 0.625000 0.166667
vt 0.625000 0.250000
vt 0.375000 0.000000
vt 0.791667 0.666667
vt 0.875000 0.666667
vt 0.875000 0.750000
vt 0.708333 0.666667
vt 0.708333 0.750000
vt 0.625000 0.750000
vt 0.625000 0.000000
vt 0.791667 0.625000
vt 0.875000 0.625000
vt 0.791667 0.583333
vt 0.625000 0.916667
vt 0.750000 0.666667
vt 0.750000 0.750000
vt 0.125000 0.750000
vt 0.625000 0.583333
vt 0.708333 0.583333
vt 0.708333 0.500000
vt 0.625000 0.625000
vt 0.708333 0.625000
vt 0.875000 0.500000
vt 0.875000 0.583333
vt 0.625000 0.416667
vt 0.625000 0.666667
vt 0.791667 0.750000
vt 0.791667 0.500000
vt 0.750000 0.500000
vt 0.750000 0.583333
vt 0.125000 0.500000
s 0
f 5/1/1 2/2/1 1/3/1
f 3/4/2 8/5/2 7/6/2
f 11/7/3 4/8/3 1/9/3
f 16/10/4 11/11/4 2/12/4
f 14/13/4 10/14/4 6/15/4
f 2/16/3 11/7/3 1/9/3
f 18/17/4 11/18/4 16/10/4
f 18/17/4 15/19/4 11/18/4
f 1/9/3 4/8/3 3/4/3
f 6/15/1 10/20/1 5/1/1
f 20/21/4 16/10/4 10/22/4
f 5/1/5 1/23/5 7/6/5
f 12/24/4 8/5/4 13/25/4
f 8/5/4 9/26/4 13/25/4
f 12/27/4 17/28/4 14/13/4
f 4/29/4 11/30/4 15/19/4
f 4/8/2 9/31/2 3/4/2
f 12/32/4 14/13/4 6/15/4
f 7/6/6 6/15/6 5/1/6
f 10/33/4 16/10/4 2/12/4
f 8/5/6 12/32/6 7/6/6
f 13/25/4 17/28/4 12/27/4
f 9/34/4 4/29/4 15/19/4
f 10/20/1 2/2/1 5/1/1
f 9/31/2 8/5/2 3/4/2
f 9/35/4 19/36/4 13/25/4
f 19/36/4 9/35/4 15/19/4
f 1/23/5 3/37/5 7/6/5
f 12/32/6 6/15/6 7/6/6
f 14/13/4 20/21/4 10/22/4
