# Blender 4.1.1
# www.blender.org
o non-manifold
v -1.000000 0.000000 1.000000
v 1.000000 0.000000 1.000000
v -1.000000 0.000000 -1.000000
v 1.000000 0.000000 -1.000000
v -0.003251 0.000000 1.000000
v -0.003251 0.000000 -1.000000
v -0.003251 1.000000 1.000000
v -0.003251 1.000000 -1.000000
vn -0.0000 1.0000 -0.0000
vn -1.0000 -0.0000 -0.0000
vt 0.498374 0.000000
vt 1.000000 0.000000
vt 1.000000 1.000000
vt 0.498374 1.000000
vt 0.000000 0.000000
vt 0.000000 1.000000
s 0
f 5/1/1 2/2/1 4/3/1 6/4/1
f 1/5/1 5/1/1 6/4/1 3/6/1
f 6/4/2 5/1/2 7/1/2 8/4/2
