# Blender 4.1.1
# www.blender.org
mtllib self-intersection.mtl
o Sphere.001
v 0.500000 0.382683 -0.923880
v 0.500000 0.000000 -1.000000
v 0.500000 -0.382683 -0.923880
v 0.500000 -0.923880 -0.382683
v 0.646447 0.923880 -0.353553
v 0.770598 0.707107 -0.653281
v 0.853553 0.382683 -0.853553
v 0.882683 0.000000 -0.923880
v 0.853553 -0.382683 -0.853553
v 0.770598 -0.707107 -0.653281
v 0.646447 -0.923880 -0.353553
v 0.770598 0.923880 -0.270598
v 1.000000 0.707107 -0.500000
v 1.153281 0.382683 -0.653281
v 1.207107 0.000000 -0.707107
v 1.153281 -0.382683 -0.653281
v 1.000000 -0.707107 -0.500000
v 0.770598 -0.923880 -0.270598
v 0.853553 0.923880 -0.146447
v 1.153281 0.707107 -0.270598
v 1.353553 0.382683 -0.353553
v 1.423880 0.000000 -0.382683
v 1.353553 -0.382683 -0.353553
v 1.153281 -0.707107 -0.270598
v 0.853553 -0.923880 -0.146447
v 0.882683 0.923880 0.000000
v 1.207107 0.707107 0.000000
v 1.423880 0.382683 0.000000
v 1.500000 0.000000 0.000000
v 1.423880 -0.382683 0.000000
v 1.207107 -0.707107 0.000000
v 0.882683 -0.923880 0.000000
v 0.853553 0.923880 0.146447
v 1.153281 0.707107 0.270598
v 1.353553 0.382683 0.353554
v 1.423879 0.000000 0.382684
v 1.353553 -0.382683 0.353554
v 1.153281 -0.707107 0.270598
v 0.853553 -0.923880 0.146447
v 0.770598 0.923880 0.270598
v 1.000000 0.707107 0.500000
v 1.153281 0.382683 0.653282
v 1.207107 0.000000 0.707107
v 1.153281 -0.382683 0.653282
v 1.000000 -0.707107 0.500000
v 0.770598 -0.923880 0.270598
v 0.646447 0.923880 0.353553
v 0.770598 0.707107 0.653281
v 0.853553 0.382683 0.853553
v 0.882683 0.000000 0.923880
v 0.853553 -0.382683 0.853553
v 0.770598 -0.707107 0.653281
v 0.646447 -0.923880 0.353553
v 0.500000 0.923880 0.382683
v 0.500000 0.707107 0.707107
v 0.500000 0.382683 0.923879
v 0.500000 0.000000 1.000000
v 0.500000 -0.382683 0.923879
v 0.500000 -0.707107 0.707107
v 0.500000 -0.923880 0.382683
v 0.500000 -1.000000 0.000000
v 0.500000 1.000000 0.000000
v 0.353553 0.923880 0.353553
v 0.229402 0.707107 0.653281
v 0.146446 0.382683 0.853553
v 0.117316 0.000000 0.923879
v 0.146446 -0.382683 0.853553
v 0.229402 -0.707107 0.653281
v 0.353553 -0.923880 0.353553
v 0.229402 0.923880 0.270598
v -0.000000 0.707107 0.500000
v -0.153282 0.382683 0.653281
v -0.207107 0.000000 0.707106
v -0.153282 -0.382683 0.653281
v -0.000000 -0.707107 0.500000
v 0.229402 -0.923880 0.270598
v 0.146447 0.923880 0.146446
v -0.153281 0.707107 0.270598
v -0.353553 0.382683 0.353553
v -0.423880 0.000000 0.382683
v -0.353553 -0.382683 0.353553
v -0.153281 -0.707107 0.270598
v 0.146447 -0.923880 0.146446
v 0.117317 0.923880 -0.000000
v -0.207107 0.707107 -0.000000
v -0.423879 0.382683 -0.000000
v -0.500000 0.000000 -0.000001
v -0.423879 -0.382683 -0.000000
v -0.207107 -0.707107 -0.000000
v 0.117317 -0.923880 -0.000000
v 0.146447 0.923880 -0.146447
v -0.153281 0.707107 -0.270598
v -0.353553 0.382683 -0.353554
v -0.423879 0.000000 -0.382684
v -0.353553 -0.382683 -0.353554
v -0.153281 -0.707107 -0.270598
v 0.146447 -0.923880 -0.146447
v 0.229402 0.923880 -0.270598
v 0.000000 0.707107 -0.500000
v -0.153281 0.382683 -0.653282
v -0.207106 0.000000 -0.707107
v -0.153281 -0.382683 -0.653282
v 0.000000 -0.707107 -0.500000
v 0.229402 -0.923880 -0.270598
v 0.353554 0.923880 -0.353554
v 0.229402 0.707107 -0.653281
v 0.146447 0.382683 -0.853553
v 0.117317 0.000000 -0.923880
v 0.146447 -0.382683 -0.853553
v 0.229402 -0.707107 -0.653281
v 0.353554 -0.923880 -0.353554
v 0.500000 0.923880 -0.382683
v 0.500000 0.707107 -0.707107
v 0.500000 -0.707107 -0.707107
v -0.500000 0.382683 -0.923880
v -0.500000 0.000000 -1.000000
v -0.500000 -0.382683 -0.923880
v -0.500000 -0.923880 -0.382683
v -0.353553 0.923880 -0.353553
v -0.229402 0.707107 -0.653281
v -0.146447 0.382683 -0.853553
v -0.117317 0.000000 -0.923880
v -0.146447 -0.382683 -0.853553
v -0.229402 -0.707107 -0.653281
v -0.353553 -0.923880 -0.353553
v -0.229402 0.923880 -0.270598
v 0.000000 0.707107 -0.500000
v 0.153282 0.382683 -0.653281
v 0.207107 0.000000 -0.707107
v 0.153282 -0.382683 -0.653281
v 0.000000 -0.707107 -0.500000
v -0.229402 -0.923880 -0.270598
v -0.146447 0.923880 -0.146447
v 0.153281 0.707107 -0.270598
v 0.353553 0.382683 -0.353553
v 0.423880 0.000000 -0.382683
v 0.353553 -0.382683 -0.353553
v 0.153281 -0.707107 -0.270598
v -0.146447 -0.923880 -0.146447
v -0.117317 0.923880 0.000000
v 0.207107 0.707107 0.000000
v 0.423880 0.382683 0.000000
v 0.500000 0.000000 0.000000
v 0.423880 -0.382683 0.000000
v 0.207107 -0.707107 0.000000
v -0.117317 -0.923880 0.000000
v -0.146447 0.923880 0.146447
v 0.153281 0.707107 0.270598
v 0.353553 0.382683 0.353554
v 0.423879 0.000000 0.382684
v 0.353553 -0.382683 0.353554
v 0.153281 -0.707107 0.270598
v -0.146447 -0.923880 0.146447
v -0.229402 0.923880 0.270598
v -0.000000 0.707107 0.500000
v 0.153281 0.382683 0.653282
v 0.207107 0.000000 0.707107
v 0.153281 -0.382683 0.653282
v -0.000000 -0.707107 0.500000
v -0.229402 -0.923880 0.270598
v -0.353553 0.923880 0.353553
v -0.229402 0.707107 0.653281
v -0.146447 0.382683 0.853553
v -0.117317 0.000000 0.923880
v -0.146447 -0.382683 0.853553
v -0.229402 -0.707107 0.653281
v -0.353553 -0.923880 0.353553
v -0.500000 0.923880 0.382683
v -0.500000 0.707107 0.707107
v -0.500000 0.382683 0.923879
v -0.500000 0.000000 1.000000
v -0.500000 -0.382683 0.923879
v -0.500000 -0.707107 0.707107
v -0.500000 -0.923880 0.382683
v -0.500000 -1.000000 0.000000
v -0.500000 1.000000 0.000000
v -0.646447 0.923880 0.353553
v -0.770598 0.707107 0.653281
v -0.853554 0.382683 0.853553
v -0.882684 0.000000 0.923879
v -0.853554 -0.382683 0.853553
v -0.770598 -0.707107 0.653281
v -0.646447 -0.923880 0.353553
v -0.770598 0.923880 0.270598
v -1.000000 0.707107 0.500000
v -1.153282 0.382683 0.653281
v -1.207107 0.000000 0.707106
v -1.153282 -0.382683 0.653281
v -1.000000 -0.707107 0.500000
v -0.770598 -0.923880 0.270598
v -0.853554 0.923880 0.146446
v -1.153281 0.707107 0.270598
v -1.353553 0.382683 0.353553
v -1.423880 0.000000 0.382683
v -1.353553 -0.382683 0.353553
v -1.153281 -0.707107 0.270598
v -0.853554 -0.923880 0.146446
v -0.882684 0.923880 -0.000000
v -1.207107 0.707107 -0.000000
v -1.423879 0.382683 -0.000000
v -1.500000 0.000000 -0.000001
v -1.423879 -0.382683 -0.000000
v -1.207107 -0.707107 -0.000000
v -0.882684 -0.923880 -0.000000
v -0.853553 0.923880 -0.146447
v -1.153281 0.707107 -0.270598
v -1.353553 0.382683 -0.353554
v -1.423879 0.000000 -0.382684
v -1.353553 -0.382683 -0.353554
v -1.153281 -0.707107 -0.270598
v -0.853553 -0.923880 -0.146447
v -0.770598 0.923880 -0.270598
v -1.000000 0.707107 -0.500000
v -1.153281 0.382683 -0.653282
v -1.207106 0.000000 -0.707107
v -1.153281 -0.382683 -0.653282
v -1.000000 -0.707107 -0.500000
v -0.770598 -0.923880 -0.270598
v -0.646446 0.923880 -0.353554
v -0.770598 0.707107 -0.653281
v -0.853553 0.382683 -0.853553
v -0.882683 0.000000 -0.923880
v -0.853553 -0.382683 -0.853553
v -0.770598 -0.707107 -0.653281
v -0.646446 -0.923880 -0.353554
v -0.500000 0.923880 -0.382683
v -0.500000 0.707107 -0.707107
v -0.500000 -0.707107 -0.707107
v -0.107428 1.120037 -0.146447
v -0.078298 1.120037 0.000000
v -0.107428 1.120037 0.146447
v -0.360982 1.396157 -0.000000
v 0.107428 1.120037 0.146446
v 0.078298 1.120037 -0.000000
v 0.107429 1.120037 -0.146447
v 0.360982 1.396157 -0.000000
vn 0.1632 -0.5481 -0.8203
vn 0.1915 0.1915 -0.9626
vn 0.1098 0.8264 -0.5522
vn 0.1098 -0.8264 -0.5522
vn 0.1915 -0.1915 -0.9626
vn 0.1632 0.5481 -0.8203
vn 0.0388 0.9800 -0.1949
vn 0.0388 -0.9800 -0.1949
vn 0.3128 -0.8264 -0.4681
vn 0.5453 -0.1915 -0.8161
vn 0.4647 0.5481 -0.6954
vn 0.1104 0.9800 -0.1653
vn 0.1104 -0.9800 -0.1653
vn 0.4647 -0.5481 -0.6954
vn 0.5453 0.1915 -0.8161
vn 0.3128 0.8264 -0.4681
vn 0.6954 0.5481 -0.4647
vn 0.1653 0.9800 -0.1104
vn 0.1653 -0.9800 -0.1104
vn 0.6954 -0.5481 -0.4647
vn 0.8161 0.1915 -0.5453
vn 0.4681 0.8264 -0.3128
vn 0.4681 -0.8264 -0.3128
vn 0.8161 -0.1915 -0.5453
vn 0.1949 -0.9800 -0.0388
vn 0.8203 -0.5481 -0.1632
vn 0.9626 0.1915 -0.1915
vn 0.5522 0.8264 -0.1098
vn 0.5522 -0.8264 -0.1098
vn 0.9626 -0.1915 -0.1915
vn 0.8203 0.5481 -0.1632
vn 0.1949 0.9800 -0.0388
vn 0.5522 0.8264 0.1098
vn 0.5522 -0.8264 0.1098
vn 0.9626 -0.1915 0.1915
vn 0.8203 0.5481 0.1632
vn 0.1949 0.9800 0.0388
vn 0.1949 -0.9800 0.0388
vn 0.8203 -0.5481 0.1632
vn 0.9626 0.1915 0.1915
vn 0.4681 -0.8264 0.3128
vn 0.8161 -0.1915 0.5453
vn 0.6954 0.5481 0.4647
vn 0.1653 0.9800 0.1104
vn 0.1653 -0.9800 0.1104
vn 0.6954 -0.5481 0.4647
vn 0.8161 0.1915 0.5453
vn 0.4681 0.8264 0.3128
vn 0.1104 0.9800 0.1653
vn 0.1104 -0.9800 0.1653
vn 0.4647 -0.5481 0.6954
vn 0.5453 0.1915 0.8161
vn 0.3128 0.8264 0.4681
vn 0.3128 -0.8264 0.4681
vn 0.5453 -0.1915 0.8161
vn 0.4647 0.5481 0.6954
vn 0.1632 -0.5481 0.8203
vn 0.1915 0.1915 0.9626
vn 0.1098 0.8264 0.5522
vn 0.1098 -0.8264 0.5522
vn 0.1915 -0.1915 0.9626
vn 0.1632 0.5481 0.8203
vn 0.0388 0.9800 0.1949
vn 0.0388 -0.9800 0.1949
vn -0.1098 -0.8264 0.5522
vn -0.1915 -0.1915 0.9626
vn -0.1632 0.5481 0.8203
vn -0.0388 0.9800 0.1949
vn -0.0388 -0.9800 0.1949
vn -0.1632 -0.5481 0.8203
vn -0.1915 0.1915 0.9626
vn -0.1098 0.8264 0.5522
vn -0.5453 -0.1915 0.8161
vn -0.4647 0.5481 0.6954
vn -0.1104 0.9800 0.1653
vn -0.1104 -0.9800 0.1653
vn -0.4647 -0.5481 0.6954
vn -0.5453 0.1915 0.8161
vn -0.3128 0.8264 0.4681
vn -0.3128 -0.8264 0.4681
vn -0.1653 -0.9800 0.1104
vn -0.6954 -0.5481 0.4647
vn -0.8161 0.1915 0.5453
vn -0.4681 0.8264 0.3128
vn -0.4681 -0.8264 0.3128
vn -0.8161 -0.1915 0.5453
vn -0.6954 0.5481 0.4647
vn -0.1653 0.9800 0.1104
vn -0.9626 0.1915 0.1915
vn -0.5522 0.8264 0.1098
vn -0.5522 -0.8264 0.1098
vn -0.9626 -0.1915 0.1915
vn -0.8203 0.5481 0.1632
vn -0.1949 -0.9800 0.0388
vn -0.8203 -0.5481 0.1632
vn -0.5522 -0.8264 -0.1098
vn -0.9626 -0.1915 -0.1915
vn -0.8203 0.5481 -0.1632
vn -0.1949 -0.9800 -0.0388
vn -0.8203 -0.5481 -0.1632
vn -0.9626 0.1915 -0.1915
vn -0.5522 0.8264 -0.1098
vn -0.6954 0.5481 -0.4647
vn -0.1653 0.9800 -0.1104
vn -0.1653 -0.9800 -0.1104
vn -0.6954 -0.5481 -0.4647
vn -0.8161 0.1915 -0.5453
vn -0.4681 0.8264 -0.3128
vn -0.4681 -0.8264 -0.3128
vn -0.8161 -0.1915 -0.5453
vn -0.1104 -0.9800 -0.1653
vn -0.4647 -0.5481 -0.6954
vn -0.5453 0.1915 -0.8161
vn -0.3128 0.8264 -0.4681
vn -0.3128 -0.8264 -0.4681
vn -0.5453 -0.1915 -0.8161
vn -0.4647 0.5481 -0.6954
vn -0.1104 0.9800 -0.1653
vn -0.1098 0.8264 -0.5522
vn -0.1098 -0.8264 -0.5522
vn -0.1915 -0.1915 -0.9626
vn -0.1632 0.5481 -0.8203
vn -0.0388 0.9800 -0.1949
vn -0.0388 -0.9800 -0.1949
vn -0.1632 -0.5481 -0.8203
vn -0.1915 0.1915 -0.9626
vn -0.3775 0.1135 0.9190
vn -0.1949 0.9800 0.0388
vn -0.1949 0.9800 -0.0388
vn 0.6921 0.7086 -0.1377
vn 0.6921 0.7086 0.1377
vn -0.3775 0.1135 -0.9190
vn -0.6921 0.7086 0.1377
vn -0.6921 0.7086 -0.1377
vn 0.3775 0.1135 -0.9190
vn 0.3775 0.1135 0.9190
vn -0.0000 -1.0000 -0.0000
vn -0.0000 1.0000 -0.0000
vn -0.0000 -0.0000 1.0000
vn -0.0000 -0.4686 -0.8834
vn -0.0000 0.4686 -0.8834
vt 0.750000 0.250000
vt 0.750000 0.375000
vt 0.687500 0.375000
vt 0.687500 0.250000
vt 0.750000 0.500000
vt 0.750000 0.625000
vt 0.687500 0.625000
vt 0.687500 0.500000
vt 0.750000 0.750000
vt 0.750000 0.875000
vt 0.687500 0.875000
vt 0.687500 0.750000
vt 0.750000 0.125000
vt 0.687500 0.125000
vt 0.718750 1.000000
vt 0.718750 0.000000
vt 0.625000 0.250000
vt 0.625000 0.125000
vt 0.625000 0.500000
vt 0.625000 0.375000
vt 0.625000 0.750000
vt 0.625000 0.625000
vt 0.656250 1.000000
vt 0.625000 0.875000
vt 0.656250 0.000000
vt 0.562500 0.750000
vt 0.562500 0.625000
vt 0.593750 1.000000
vt 0.562500 0.875000
vt 0.593750 0.000000
vt 0.562500 0.125000
vt 0.562500 0.375000
vt 0.562500 0.250000
vt 0.562500 0.500000
vt 0.531250 0.000000
vt 0.500000 0.125000
vt 0.500000 0.375000
vt 0.500000 0.250000
vt 0.500000 0.625000
vt 0.500000 0.500000
vt 0.500000 0.875000
vt 0.500000 0.750000
vt 0.531250 1.000000
vt 0.437500 0.875000
vt 0.437500 0.750000
vt 0.437500 0.250000
vt 0.437500 0.125000
vt 0.437500 0.500000
vt 0.437500 0.375000
vt 0.437500 0.625000
vt 0.468750 1.000000
vt 0.468750 0.000000
vt 0.375000 0.250000
vt 0.375000 0.125000
vt 0.375000 0.500000
vt 0.375000 0.375000
vt 0.375000 0.750000
vt 0.375000 0.625000
vt 0.406250 1.000000
vt 0.375000 0.875000
vt 0.406250 0.000000
vt 0.343750 1.000000
vt 0.312500 0.875000
vt 0.343750 0.000000
vt 0.312500 0.125000
vt 0.312500 0.375000
vt 0.312500 0.250000
vt 0.312500 0.625000
vt 0.312500 0.500000
vt 0.312500 0.750000
vt 0.250000 0.375000
vt 0.250000 0.250000
vt 0.250000 0.625000
vt 0.250000 0.500000
vt 0.250000 0.875000
vt 0.250000 0.750000
vt 0.250000 0.125000
vt 0.281250 1.000000
vt 0.281250 0.000000
vt 0.187500 0.250000
vt 0.187500 0.125000
vt 0.187500 0.500000
vt 0.187500 0.375000
vt 0.187500 0.750000
vt 0.187500 0.625000
vt 0.218750 1.000000
vt 0.187500 0.875000
vt 0.218750 0.000000
vt 0.125000 0.500000
vt 0.125000 0.375000
vt 0.125000 0.750000
vt 0.125000 0.625000
vt 0.156250 1.000000
vt 0.125000 0.875000
vt 0.156250 0.000000
vt 0.125000 0.125000
vt 0.125000 0.250000
vt 0.093750 0.000000
vt 0.062500 0.125000
vt 0.062500 0.375000
vt 0.062500 0.250000
vt 0.062500 0.625000
vt 0.062500 0.500000
vt 0.062500 0.875000
vt 0.062500 0.750000
vt 0.093750 1.000000
vt 0.000000 0.625000
vt 0.000000 0.500000
vt 0.000000 0.875000
vt 0.000000 0.750000
vt 0.000000 0.250000
vt 0.000000 0.125000
vt 0.000000 0.375000
vt 0.031250 0.000000
vt 1.000000 0.125000
vt 1.000000 0.250000
vt 0.937500 0.250000
vt 0.937500 0.125000
vt 1.000000 0.375000
vt 1.000000 0.500000
vt 0.937500 0.500000
vt 0.937500 0.375000
vt 1.000000 0.625000
vt 1.000000 0.750000
vt 0.937500 0.750000
vt 0.937500 0.625000
vt 0.937500 0.875000
vt 1.000000 0.875000
vt 0.968750 0.000000
vt 0.875000 0.750000
vt 0.875000 0.625000
vt 0.906250 1.000000
vt 0.875000 0.875000
vt 0.906250 0.000000
vt 0.875000 0.125000
vt 0.875000 0.375000
vt 0.875000 0.250000
vt 0.875000 0.500000
vt 0.843750 0.000000
vt 0.812500 0.125000
vt 0.812500 0.375000
vt 0.812500 0.250000
vt 0.812500 0.625000
vt 0.812500 0.500000
vt 0.812500 0.875000
vt 0.812500 0.750000
vt 0.843750 1.000000
vt 0.781250 1.000000
vt 0.781250 0.000000
vt 0.031250 1.000000
vt 0.968750 1.000000
vt 0.000000 0.000000
s 0
f 114/1/1 3/2/1 9/3/1 10/4/1
f 2/5/2 1/6/2 7/7/2 8/8/2
f 113/9/3 112/10/3 5/11/3 6/12/3
f 4/13/4 114/1/4 10/4/4 11/14/4
f 3/2/5 2/5/5 8/8/5 9/3/5
f 1/6/6 113/9/6 6/12/6 7/7/6
f 112/10/7 62/15/7 5/11/7
f 61/16/8 4/13/8 11/14/8
f 11/14/9 10/4/9 17/17/9 18/18/9
f 9/3/10 8/8/10 15/19/10 16/20/10
f 7/7/11 6/12/11 13/21/11 14/22/11
f 5/11/12 62/23/12 12/24/12
f 61/25/13 11/14/13 18/18/13
f 10/4/14 9/3/14 16/20/14 17/17/14
f 8/8/15 7/7/15 14/22/15 15/19/15
f 6/12/16 5/11/16 12/24/16 13/21/16
f 14/22/17 13/21/17 20/26/17 21/27/17
f 12/24/18 62/28/18 19/29/18
f 61/30/19 18/18/19 25/31/19
f 17/17/20 16/20/20 23/32/20 24/33/20
f 15/19/21 14/22/21 21/27/21 22/34/21
f 13/21/22 12/24/22 19/29/22 20/26/22
f 18/18/23 17/17/23 24/33/23 25/31/23
f 16/20/24 15/19/24 22/34/24 23/32/24
f 61/35/25 25/31/25 32/36/25
f 24/33/26 23/32/26 30/37/26 31/38/26
f 22/34/27 21/27/27 28/39/27 29/40/27
f 20/26/28 19/29/28 26/41/28 27/42/28
f 25/31/29 24/33/29 31/38/29 32/36/29
f 23/32/30 22/34/30 29/40/30 30/37/30
f 21/27/31 20/26/31 27/42/31 28/39/31
f 19/29/32 62/43/32 26/41/32
f 27/42/33 26/41/33 33/44/33 34/45/33
f 32/36/34 31/38/34 38/46/34 39/47/34
f 30/37/35 29/40/35 36/48/35 37/49/35
f 28/39/36 27/42/36 34/45/36 35/50/36
f 26/41/37 62/51/37 33/44/37
f 61/52/38 32/36/38 39/47/38
f 31/38/39 30/37/39 37/49/39 38/46/39
f 29/40/40 28/39/40 35/50/40 36/48/40
f 39/47/41 38/46/41 45/53/41 46/54/41
f 37/49/42 36/48/42 43/55/42 44/56/42
f 35/50/43 34/45/43 41/57/43 42/58/43
f 33/44/44 62/59/44 40/60/44
f 61/61/45 39/47/45 46/54/45
f 38/46/46 37/49/46 44/56/46 45/53/46
f 36/48/47 35/50/47 42/58/47 43/55/47
f 34/45/48 33/44/48 40/60/48 41/57/48
f 40/60/49 62/62/49 47/63/49
f 61/64/50 46/54/50 53/65/50
f 45/53/51 44/56/51 51/66/51 52/67/51
f 43/55/52 42/58/52 49/68/52 50/69/52
f 41/57/53 40/60/53 47/63/53 48/70/53
f 46/54/54 45/53/54 52/67/54 53/65/54
f 44/56/55 43/55/55 50/69/55 51/66/55
f 42/58/56 41/57/56 48/70/56 49/68/56
f 52/67/57 51/66/57 58/71/57 59/72/57
f 50/69/58 49/68/58 56/73/58 57/74/58
f 48/70/59 47/63/59 54/75/59 55/76/59
f 53/65/60 52/67/60 59/72/60 60/77/60
f 51/66/61 50/69/61 57/74/61 58/71/61
f 49/68/62 48/70/62 55/76/62 56/73/62
f 47/63/63 62/78/63 54/75/63
f 61/79/64 53/65/64 60/77/64
f 60/77/65 59/72/65 68/80/65 69/81/65
f 58/71/66 57/74/66 66/82/66 67/83/66
f 56/73/67 55/76/67 64/84/67 65/85/67
f 54/75/68 62/86/68 63/87/68
f 61/88/69 60/77/69 69/81/69
f 59/72/70 58/71/70 67/83/70 68/80/70
f 57/74/71 56/73/71 65/85/71 66/82/71
f 55/76/72 54/75/72 63/87/72 64/84/72
f 67/83/73 66/82/73 73/89/73 74/90/73
f 65/85/74 64/84/74 71/91/74 72/92/74
f 63/87/75 62/93/75 70/94/75
f 61/95/76 69/81/76 76/96/76
f 68/80/77 67/83/77 74/90/77 75/97/77
f 66/82/78 65/85/78 72/92/78 73/89/78
f 64/84/79 63/87/79 70/94/79 71/91/79
f 69/81/80 68/80/80 75/97/80 76/96/80
f 61/98/81 76/96/81 83/99/81
f 75/97/82 74/90/82 81/100/82 82/101/82
f 73/89/83 72/92/83 79/102/83 80/103/83
f 71/91/84 70/94/84 77/104/84 78/105/84
f 76/96/85 75/97/85 82/101/85 83/99/85
f 74/90/86 73/89/86 80/103/86 81/100/86
f 72/92/87 71/91/87 78/105/87 79/102/87
f 70/94/88 62/106/88 77/104/88
f 80/103/89 79/102/89 86/107/89 87/108/89
f 78/105/90 77/104/90 84/109/90 85/110/90
f 83/99/91 82/101/91 89/111/91 90/112/91
f 81/100/92 80/103/92 87/108/92 88/113/92
f 79/102/93 78/105/93 85/110/93 86/107/93
f 84/109/92 77/104/92 233/104/92 234/109/92
f 61/114/94 83/99/94 90/112/94
f 82/101/95 81/100/95 88/113/95 89/111/95
f 90/115/96 89/116/96 96/117/96 97/118/96
f 88/119/97 87/120/97 94/121/97 95/122/97
f 86/123/98 85/124/98 92/125/98 93/126/98
f 91/127/97 84/128/97 234/128/97 235/127/97
f 61/129/99 90/115/99 97/118/99
f 89/116/100 88/119/100 95/122/100 96/117/100
f 87/120/101 86/123/101 93/126/101 94/121/101
f 85/124/102 84/128/102 91/127/102 92/125/102
f 93/126/103 92/125/103 99/130/103 100/131/103
f 91/127/104 62/132/104 98/133/104
f 61/134/105 97/118/105 104/135/105
f 96/117/106 95/122/106 102/136/106 103/137/106
f 94/121/107 93/126/107 100/131/107 101/138/107
f 92/125/108 91/127/108 98/133/108 99/130/108
f 97/118/109 96/117/109 103/137/109 104/135/109
f 95/122/110 94/121/110 101/138/110 102/136/110
f 61/139/111 104/135/111 111/140/111
f 103/137/112 102/136/112 109/141/112 110/142/112
f 101/138/113 100/131/113 107/143/113 108/144/113
f 99/130/114 98/133/114 105/145/114 106/146/114
f 104/135/115 103/137/115 110/142/115 111/140/115
f 102/136/116 101/138/116 108/144/116 109/141/116
f 100/131/117 99/130/117 106/146/117 107/143/117
f 98/133/118 62/147/118 105/145/118
f 106/146/119 105/145/119 112/10/119 113/9/119
f 111/140/120 110/142/120 114/1/120 4/13/120
f 109/141/121 108/144/121 2/5/121 3/2/121
f 107/143/122 106/146/122 113/9/122 1/6/122
f 105/145/123 62/148/123 112/10/123
f 61/149/124 111/140/124 4/13/124
f 110/142/125 109/141/125 3/2/125 114/1/125
f 108/144/126 107/143/126 1/6/126 2/5/126
f 228/1/1 117/2/1 123/3/1 124/4/1
f 116/5/2 115/6/2 121/7/2 122/8/2
f 227/9/3 226/10/3 119/11/3 120/12/3
f 118/13/4 228/1/4 124/4/4 125/14/4
f 117/2/5 116/5/5 122/8/5 123/3/5
f 115/6/6 227/9/6 120/12/6 121/7/6
f 226/10/7 176/15/7 119/11/7
f 175/16/8 118/13/8 125/14/8
f 125/14/9 124/4/9 131/17/9 132/18/9
f 123/3/10 122/8/10 129/19/10 130/20/10
f 121/7/11 120/12/11 127/21/11 128/22/11
f 119/11/12 176/23/12 126/24/12
f 175/25/13 125/14/13 132/18/13
f 124/4/14 123/3/14 130/20/14 131/17/14
f 122/8/15 121/7/15 128/22/15 129/19/15
f 120/12/16 119/11/16 126/24/16 127/21/16
f 128/22/17 127/21/17 134/26/17 135/27/17
f 126/24/18 176/28/18 133/29/18
f 175/30/19 132/18/19 139/31/19
f 131/17/20 130/20/20 137/32/20 138/33/20
f 129/19/21 128/22/21 135/27/21 136/34/21
f 127/21/22 126/24/22 133/29/22 134/26/22
f 132/18/23 131/17/23 138/33/23 139/31/23
f 130/20/24 129/19/24 136/34/24 137/32/24
f 175/35/25 139/31/25 146/36/25
f 138/33/26 137/32/26 144/37/26 145/38/26
f 136/34/27 135/27/27 142/39/27 143/40/27
f 134/26/28 133/29/28 140/41/28 141/42/28
f 139/31/29 138/33/29 145/38/29 146/36/29
f 137/32/30 136/34/30 143/40/30 144/37/30
f 135/27/31 134/26/31 141/42/31 142/39/31
f 147/44/35 140/41/35 230/41/35 231/44/35
f 141/42/33 140/41/33 147/44/33 148/45/33
f 146/36/34 145/38/34 152/46/34 153/47/34
f 144/37/35 143/40/35 150/48/35 151/49/35
f 142/39/36 141/42/36 148/45/36 149/50/36
f 176/59/127 147/44/127 231/44/127 232/59/127
f 175/52/38 146/36/38 153/47/38
f 145/38/39 144/37/39 151/49/39 152/46/39
f 143/40/40 142/39/40 149/50/40 150/48/40
f 153/47/41 152/46/41 159/53/41 160/54/41
f 151/49/42 150/48/42 157/55/42 158/56/42
f 149/50/43 148/45/43 155/57/43 156/58/43
f 147/44/44 176/59/44 154/60/44
f 175/61/45 153/47/45 160/54/45
f 152/46/46 151/49/46 158/56/46 159/53/46
f 150/48/47 149/50/47 156/58/47 157/55/47
f 148/45/48 147/44/48 154/60/48 155/57/48
f 154/60/49 176/62/49 161/63/49
f 175/64/50 160/54/50 167/65/50
f 159/53/51 158/56/51 165/66/51 166/67/51
f 157/55/52 156/58/52 163/68/52 164/69/52
f 155/57/53 154/60/53 161/63/53 162/70/53
f 160/54/54 159/53/54 166/67/54 167/65/54
f 158/56/55 157/55/55 164/69/55 165/66/55
f 156/58/56 155/57/56 162/70/56 163/68/56
f 166/67/57 165/66/57 172/71/57 173/72/57
f 164/69/58 163/68/58 170/73/58 171/74/58
f 162/70/59 161/63/59 168/75/59 169/76/59
f 167/65/60 166/67/60 173/72/60 174/77/60
f 165/66/61 164/69/61 171/74/61 172/71/61
f 163/68/62 162/70/62 169/76/62 170/73/62
f 161/63/63 176/78/63 168/75/63
f 175/79/64 167/65/64 174/77/64
f 174/77/65 173/72/65 182/80/65 183/81/65
f 172/71/66 171/74/66 180/82/66 181/83/66
f 170/73/67 169/76/67 178/84/67 179/85/67
f 168/75/68 176/86/68 177/87/68
f 175/88/69 174/77/69 183/81/69
f 173/72/70 172/71/70 181/83/70 182/80/70
f 171/74/71 170/73/71 179/85/71 180/82/71
f 169/76/72 168/75/72 177/87/72 178/84/72
f 181/83/73 180/82/73 187/89/73 188/90/73
f 179/85/74 178/84/74 185/91/74 186/92/74
f 177/87/75 176/93/75 184/94/75
f 175/95/76 183/81/76 190/96/76
f 182/80/77 181/83/77 188/90/77 189/97/77
f 180/82/78 179/85/78 186/92/78 187/89/78
f 178/84/79 177/87/79 184/94/79 185/91/79
f 183/81/80 182/80/80 189/97/80 190/96/80
f 175/98/81 190/96/81 197/99/81
f 189/97/82 188/90/82 195/100/82 196/101/82
f 187/89/83 186/92/83 193/102/83 194/103/83
f 185/91/84 184/94/84 191/104/84 192/105/84
f 190/96/85 189/97/85 196/101/85 197/99/85
f 188/90/86 187/89/86 194/103/86 195/100/86
f 186/92/87 185/91/87 192/105/87 193/102/87
f 184/94/88 176/106/88 191/104/88
f 194/103/89 193/102/89 200/107/89 201/108/89
f 192/105/90 191/104/90 198/109/90 199/110/90
f 197/99/91 196/101/91 203/111/91 204/112/91
f 195/100/92 194/103/92 201/108/92 202/113/92
f 193/102/93 192/105/93 199/110/93 200/107/93
f 191/104/128 176/150/128 198/109/128
f 175/114/94 197/99/94 204/112/94
f 196/101/95 195/100/95 202/113/95 203/111/95
f 204/115/96 203/116/96 210/117/96 211/118/96
f 202/119/97 201/120/97 208/121/97 209/122/97
f 200/123/98 199/124/98 206/125/98 207/126/98
f 198/128/129 176/151/129 205/127/129
f 175/129/99 204/115/99 211/118/99
f 203/116/100 202/119/100 209/122/100 210/117/100
f 201/120/101 200/123/101 207/126/101 208/121/101
f 199/124/102 198/128/102 205/127/102 206/125/102
f 207/126/103 206/125/103 213/130/103 214/131/103
f 205/127/104 176/132/104 212/133/104
f 175/134/105 211/118/105 218/135/105
f 210/117/106 209/122/106 216/136/106 217/137/106
f 208/121/107 207/126/107 214/131/107 215/138/107
f 206/125/108 205/127/108 212/133/108 213/130/108
f 211/118/109 210/117/109 217/137/109 218/135/109
f 209/122/110 208/121/110 215/138/110 216/136/110
f 175/139/111 218/135/111 225/140/111
f 217/137/112 216/136/112 223/141/112 224/142/112
f 215/138/113 214/131/113 221/143/113 222/144/113
f 213/130/114 212/133/114 219/145/114 220/146/114
f 218/135/115 217/137/115 224/142/115 225/140/115
f 216/136/116 215/138/116 222/144/116 223/141/116
f 214/131/117 213/130/117 220/146/117 221/143/117
f 212/133/118 176/147/118 219/145/118
f 220/146/119 219/145/119 226/10/119 227/9/119
f 225/140/120 224/142/120 228/1/120 118/13/120
f 223/141/121 222/144/121 116/5/121 117/2/121
f 221/143/122 220/146/122 227/9/122 115/6/122
f 219/145/123 176/148/123 226/10/123
f 175/149/124 225/140/124 118/13/124
f 224/142/125 223/141/125 117/2/125 228/1/125
f 222/144/126 221/143/126 115/6/126 116/5/126
f 229/29/130 232/43/130 230/41/130
f 230/41/131 232/51/131 231/44/131
f 133/29/132 176/28/132 232/28/132 229/29/132
f 140/41/30 133/29/30 229/29/30 230/41/30
f 233/104/133 236/150/133 234/109/133
f 234/128/134 236/151/134 235/127/134
f 62/132/135 91/127/135 235/127/135 236/132/135
f 77/104/136 62/106/136 236/106/136 233/104/136
f 229/29/137 235/127/137 234/128/137 230/41/137
f 231/44/138 233/104/138 234/109/138 230/41/138
f 236/152/139 232/152/139 230/152/139 234/152/139
f 232/152/140 236/152/140 233/152/140 231/152/140
f 232/152/141 236/152/141 235/152/141 229/152/141
